<mxfile host="app.diagrams.net" modified="2023-09-16T09:04:55.642Z" agent="Mozilla/5.0 (Windows NT 10.0; Win64; x64) AppleWebKit/537.36 (KHTML, like Gecko) Chrome/116.0.0.0 Safari/537.36" etag="5sWQXXt_q3PWIypN9Xkj" version="21.7.4" type="github">
  <diagram name="페이지-1" id="U3VvQ_S5iJKx1H4q6sBK">
    <mxGraphModel dx="1276" dy="681" grid="1" gridSize="10" guides="1" tooltips="1" connect="1" arrows="1" fold="1" page="1" pageScale="1" pageWidth="827" pageHeight="1169" math="0" shadow="0">
      <root>
        <mxCell id="0" />
        <mxCell id="1" parent="0" />
        <mxCell id="aakahUFlW3FEkS22ihH7-26" value="" style="rounded=0;whiteSpace=wrap;html=1;" vertex="1" parent="1">
          <mxGeometry x="480" y="240" width="170" height="200" as="geometry" />
        </mxCell>
        <mxCell id="aakahUFlW3FEkS22ihH7-25" value="" style="rounded=0;whiteSpace=wrap;html=1;" vertex="1" parent="1">
          <mxGeometry x="291" y="240" width="170" height="200" as="geometry" />
        </mxCell>
        <mxCell id="aakahUFlW3FEkS22ihH7-24" value="" style="rounded=0;whiteSpace=wrap;html=1;" vertex="1" parent="1">
          <mxGeometry x="105" y="240" width="170" height="200" as="geometry" />
        </mxCell>
        <mxCell id="aakahUFlW3FEkS22ihH7-1" value="&lt;h4&gt;연구목적&lt;/h4&gt;" style="rounded=1;whiteSpace=wrap;html=1;fontSize=13;fontStyle=1;fillColor=#f5f5f5;fontColor=#333333;strokeColor=#666666;" vertex="1" parent="1">
          <mxGeometry x="20" y="20" width="70" height="60" as="geometry" />
        </mxCell>
        <mxCell id="aakahUFlW3FEkS22ihH7-2" value="&lt;font style=&quot;font-size: 14px;&quot;&gt;최근 13년(2010~2022년) 동안 관측된 독도의 기후자료를 활용하여 독도의 기후특성을 기온과 강수량의 측면에서 규명하고 독도의 기후그래프를 생산&lt;/font&gt;" style="rounded=1;whiteSpace=wrap;html=1;" vertex="1" parent="1">
          <mxGeometry x="110" y="20" width="540" height="60" as="geometry" />
        </mxCell>
        <mxCell id="aakahUFlW3FEkS22ihH7-6" value="&lt;font style=&quot;font-size: 13px;&quot;&gt;원자료(2010~2022): &lt;br&gt;일평균기온, 일강수량&lt;/font&gt;" style="rounded=1;whiteSpace=wrap;html=1;" vertex="1" parent="1">
          <mxGeometry x="255" y="100" width="200" height="50" as="geometry" />
        </mxCell>
        <mxCell id="aakahUFlW3FEkS22ihH7-9" value="&lt;ul&gt;&lt;li&gt;기존 연구와의 결과 비교&lt;/li&gt;&lt;li&gt;인접 지역과의 기후 특성 비교&lt;/li&gt;&lt;/ul&gt;" style="rounded=1;whiteSpace=wrap;html=1;align=left;" vertex="1" parent="1">
          <mxGeometry x="196" y="470" width="360" height="60" as="geometry" />
        </mxCell>
        <mxCell id="aakahUFlW3FEkS22ihH7-10" value="&lt;h4&gt;연구 순서&lt;/h4&gt;" style="rounded=1;whiteSpace=wrap;html=1;fontSize=13;fontStyle=1;fillColor=#f5f5f5;fontColor=#333333;strokeColor=#666666;" vertex="1" parent="1">
          <mxGeometry x="20" y="100" width="70" height="440" as="geometry" />
        </mxCell>
        <mxCell id="aakahUFlW3FEkS22ihH7-13" value="데이터 검증 및 처리" style="shape=hexagon;perimeter=hexagonPerimeter2;whiteSpace=wrap;html=1;fixedSize=1;" vertex="1" parent="1">
          <mxGeometry x="255" y="170" width="200" height="50" as="geometry" />
        </mxCell>
        <mxCell id="aakahUFlW3FEkS22ihH7-14" value="&lt;font style=&quot;font-size: 13px;&quot;&gt;월 자료 생산&lt;br&gt;&lt;br&gt;월별 평균기온, 월 강수량&lt;br&gt;&lt;/font&gt;" style="rounded=1;whiteSpace=wrap;html=1;" vertex="1" parent="1">
          <mxGeometry x="125" y="250" width="130" height="80" as="geometry" />
        </mxCell>
        <mxCell id="aakahUFlW3FEkS22ihH7-15" value="&lt;font style=&quot;font-size: 13px;&quot;&gt;계절별 자료 생산&lt;br&gt;&lt;br&gt;계절별 평균기온, 평균강수량&lt;br&gt;&lt;/font&gt;" style="rounded=1;whiteSpace=wrap;html=1;" vertex="1" parent="1">
          <mxGeometry x="311" y="250" width="130" height="80" as="geometry" />
        </mxCell>
        <mxCell id="aakahUFlW3FEkS22ihH7-16" value="&lt;span style=&quot;font-size: 13px;&quot;&gt;연 자료 생산&lt;br&gt;&lt;br&gt;&lt;br&gt;&lt;br&gt;&lt;/span&gt;" style="rounded=1;whiteSpace=wrap;html=1;spacingLeft=0;" vertex="1" parent="1">
          <mxGeometry x="504.5" y="250" width="130" height="80" as="geometry" />
        </mxCell>
        <mxCell id="aakahUFlW3FEkS22ihH7-18" value="&lt;ul style=&quot;border-color: var(--border-color); color: rgb(0, 0, 0); font-family: Helvetica; font-size: 13px; font-style: normal; font-variant-ligatures: normal; font-variant-caps: normal; font-weight: 400; letter-spacing: normal; orphans: 2; text-align: center; text-indent: 0px; text-transform: none; widows: 2; word-spacing: 0px; -webkit-text-stroke-width: 0px; text-decoration-thickness: initial; text-decoration-style: initial; text-decoration-color: initial;&quot;&gt;&lt;li style=&quot;border-color: var(--border-color); text-align: justify;&quot;&gt;&lt;span style=&quot;border-color: var(--border-color); font-size: 13px;&quot;&gt;연평균기온&lt;/span&gt;&lt;/li&gt;&lt;li style=&quot;border-color: var(--border-color); text-align: justify;&quot;&gt;&lt;span style=&quot;border-color: var(--border-color); font-size: 13px;&quot;&gt;연강수량&lt;/span&gt;&lt;/li&gt;&lt;/ul&gt;" style="text;whiteSpace=wrap;html=1;labelBackgroundColor=none;labelPosition=center;verticalLabelPosition=middle;align=center;verticalAlign=middle;rounded=0;fillColor=none;" vertex="1" parent="1">
          <mxGeometry x="495.5" y="278" width="125" height="50" as="geometry" />
        </mxCell>
        <mxCell id="aakahUFlW3FEkS22ihH7-20" value="&lt;ul style=&quot;border-color: var(--border-color); color: rgb(0, 0, 0); font-family: Helvetica; font-size: 12px; font-style: normal; font-variant-ligatures: normal; font-variant-caps: normal; font-weight: 400; letter-spacing: normal; orphans: 2; text-align: left; text-indent: 0px; text-transform: none; widows: 2; word-spacing: 0px; -webkit-text-stroke-width: 0px; text-decoration-thickness: initial; text-decoration-style: initial; text-decoration-color: initial; background-color: rgb(251, 251, 251);&quot;&gt;&lt;li style=&quot;border-color: var(--border-color); text-align: justify;&quot;&gt;연 변화 파악&lt;/li&gt;&lt;li style=&quot;border-color: var(--border-color); text-align: justify;&quot;&gt;기온, 강수량 연 변화 그래프&lt;/li&gt;&lt;li style=&quot;border-color: var(--border-color); text-align: justify;&quot;&gt;연 강수일수&lt;/li&gt;&lt;/ul&gt;" style="text;whiteSpace=wrap;html=1;" vertex="1" parent="1">
          <mxGeometry x="455" y="355" width="200" height="70" as="geometry" />
        </mxCell>
        <mxCell id="aakahUFlW3FEkS22ihH7-21" value="&lt;ul style=&quot;border-color: var(--border-color); color: rgb(0, 0, 0); font-family: Helvetica; font-size: 12px; font-style: normal; font-variant-ligatures: normal; font-variant-caps: normal; font-weight: 400; letter-spacing: normal; orphans: 2; text-align: left; text-indent: 0px; text-transform: none; widows: 2; word-spacing: 0px; -webkit-text-stroke-width: 0px; text-decoration-thickness: initial; text-decoration-style: initial; text-decoration-color: initial; background-color: rgb(251, 251, 251);&quot;&gt;&lt;li style=&quot;border-color: var(--border-color); text-align: justify;&quot;&gt;계절별 기온 특성 파악&lt;/li&gt;&lt;li style=&quot;border-color: var(--border-color); text-align: justify;&quot;&gt;계절별 강수량 특성 파악&lt;/li&gt;&lt;/ul&gt;" style="text;whiteSpace=wrap;html=1;" vertex="1" parent="1">
          <mxGeometry x="301" y="343" width="159" height="87" as="geometry" />
        </mxCell>
        <mxCell id="aakahUFlW3FEkS22ihH7-22" value="&lt;ul style=&quot;border-color: var(--border-color); font-family: Helvetica; font-size: 12px; font-style: normal; font-variant-ligatures: normal; font-variant-caps: normal; font-weight: 400; letter-spacing: normal; orphans: 2; text-indent: 0px; text-transform: none; widows: 2; word-spacing: 0px; -webkit-text-stroke-width: 0px; text-decoration-thickness: initial; text-decoration-style: initial; text-decoration-color: initial; background-color: rgb(251, 251, 251);&quot;&gt;&lt;li style=&quot;border-color: var(--border-color);&quot;&gt;월별 기온 특성 파악&lt;/li&gt;&lt;li style=&quot;border-color: var(--border-color);&quot;&gt;월별 강수량 특성 파악&lt;/li&gt;&lt;li style=&quot;border-color: var(--border-color);&quot;&gt;기온 + 강수량 기후 그래프&amp;nbsp;&lt;/li&gt;&lt;/ul&gt;" style="text;html=1;spacingLeft=-17;whiteSpace=wrap;labelBorderColor=none;align=left;glass=0;rounded=0;shadow=0;fillColor=none;" vertex="1" parent="1">
          <mxGeometry x="110" y="328" width="170" height="100" as="geometry" />
        </mxCell>
        <mxCell id="aakahUFlW3FEkS22ihH7-30" value="" style="rounded=0;whiteSpace=wrap;html=1;" vertex="1" parent="1">
          <mxGeometry x="366" y="610" width="294" height="90" as="geometry" />
        </mxCell>
        <mxCell id="aakahUFlW3FEkS22ihH7-31" value="&lt;font style=&quot;font-size: 13px;&quot;&gt;원자료(2010~2022): &lt;br&gt;일평균기온, 일강수량&lt;/font&gt;" style="rounded=1;whiteSpace=wrap;html=1;" vertex="1" parent="1">
          <mxGeometry x="130" y="610" width="200" height="50" as="geometry" />
        </mxCell>
        <mxCell id="aakahUFlW3FEkS22ihH7-32" value="&lt;ul&gt;&lt;li&gt;기존 연구와의 결과 비교&lt;/li&gt;&lt;li&gt;인접 지역과의 기후 특성 비교&lt;/li&gt;&lt;/ul&gt;" style="rounded=1;whiteSpace=wrap;html=1;align=left;" vertex="1" parent="1">
          <mxGeometry x="209" y="1090" width="360" height="60" as="geometry" />
        </mxCell>
        <mxCell id="aakahUFlW3FEkS22ihH7-33" value="데이터 검증 및 처리" style="shape=hexagon;perimeter=hexagonPerimeter2;whiteSpace=wrap;html=1;fixedSize=1;" vertex="1" parent="1">
          <mxGeometry x="130" y="680" width="200" height="50" as="geometry" />
        </mxCell>
        <mxCell id="aakahUFlW3FEkS22ihH7-34" value="&lt;font style=&quot;font-size: 13px;&quot;&gt;월 자료 생산&lt;br&gt;&lt;br&gt;월별 평균기온, 월 강수량&lt;br&gt;&lt;/font&gt;" style="rounded=1;whiteSpace=wrap;html=1;" vertex="1" parent="1">
          <mxGeometry x="370.5" y="615" width="90.5" height="80" as="geometry" />
        </mxCell>
        <mxCell id="aakahUFlW3FEkS22ihH7-35" value="&lt;font style=&quot;font-size: 13px;&quot;&gt;계절별 자료 생산&lt;br&gt;&lt;br&gt;계절별 평균기온, 평균강수량&lt;br&gt;&lt;/font&gt;" style="rounded=1;whiteSpace=wrap;html=1;" vertex="1" parent="1">
          <mxGeometry x="483" y="1040" width="130" height="80" as="geometry" />
        </mxCell>
        <mxCell id="aakahUFlW3FEkS22ihH7-36" value="&lt;span style=&quot;font-size: 13px;&quot;&gt;연 자료 생산&lt;br&gt;&lt;br&gt;&lt;br&gt;&lt;br&gt;&lt;/span&gt;" style="rounded=1;whiteSpace=wrap;html=1;spacingLeft=0;" vertex="1" parent="1">
          <mxGeometry x="676.5" y="1040" width="130" height="80" as="geometry" />
        </mxCell>
        <mxCell id="aakahUFlW3FEkS22ihH7-37" value="&lt;ul style=&quot;border-color: var(--border-color); color: rgb(0, 0, 0); font-family: Helvetica; font-size: 13px; font-style: normal; font-variant-ligatures: normal; font-variant-caps: normal; font-weight: 400; letter-spacing: normal; orphans: 2; text-align: center; text-indent: 0px; text-transform: none; widows: 2; word-spacing: 0px; -webkit-text-stroke-width: 0px; text-decoration-thickness: initial; text-decoration-style: initial; text-decoration-color: initial;&quot;&gt;&lt;li style=&quot;border-color: var(--border-color); text-align: justify;&quot;&gt;&lt;span style=&quot;border-color: var(--border-color); font-size: 13px;&quot;&gt;연평균기온&lt;/span&gt;&lt;/li&gt;&lt;li style=&quot;border-color: var(--border-color); text-align: justify;&quot;&gt;&lt;span style=&quot;border-color: var(--border-color); font-size: 13px;&quot;&gt;연강수량&lt;/span&gt;&lt;/li&gt;&lt;/ul&gt;" style="text;whiteSpace=wrap;html=1;labelBackgroundColor=none;labelPosition=center;verticalLabelPosition=middle;align=center;verticalAlign=middle;rounded=0;fillColor=none;" vertex="1" parent="1">
          <mxGeometry x="667.5" y="1068" width="125" height="50" as="geometry" />
        </mxCell>
        <mxCell id="aakahUFlW3FEkS22ihH7-38" value="&lt;ul style=&quot;border-color: var(--border-color); color: rgb(0, 0, 0); font-family: Helvetica; font-size: 12px; font-style: normal; font-variant-ligatures: normal; font-variant-caps: normal; font-weight: 400; letter-spacing: normal; orphans: 2; text-align: left; text-indent: 0px; text-transform: none; widows: 2; word-spacing: 0px; -webkit-text-stroke-width: 0px; text-decoration-thickness: initial; text-decoration-style: initial; text-decoration-color: initial; background-color: rgb(251, 251, 251);&quot;&gt;&lt;li style=&quot;border-color: var(--border-color); text-align: justify;&quot;&gt;연 변화 파악&lt;/li&gt;&lt;li style=&quot;border-color: var(--border-color); text-align: justify;&quot;&gt;기온, 강수량 연 변화 그래프&lt;/li&gt;&lt;li style=&quot;border-color: var(--border-color); text-align: justify;&quot;&gt;연 강수일수&lt;/li&gt;&lt;/ul&gt;" style="text;whiteSpace=wrap;html=1;" vertex="1" parent="1">
          <mxGeometry x="627" y="1145" width="200" height="70" as="geometry" />
        </mxCell>
        <mxCell id="aakahUFlW3FEkS22ihH7-39" value="&lt;ul style=&quot;border-color: var(--border-color); color: rgb(0, 0, 0); font-family: Helvetica; font-size: 12px; font-style: normal; font-variant-ligatures: normal; font-variant-caps: normal; font-weight: 400; letter-spacing: normal; orphans: 2; text-align: left; text-indent: 0px; text-transform: none; widows: 2; word-spacing: 0px; -webkit-text-stroke-width: 0px; text-decoration-thickness: initial; text-decoration-style: initial; text-decoration-color: initial; background-color: rgb(251, 251, 251);&quot;&gt;&lt;li style=&quot;border-color: var(--border-color); text-align: justify;&quot;&gt;계절별 기온 특성 파악&lt;/li&gt;&lt;li style=&quot;border-color: var(--border-color); text-align: justify;&quot;&gt;계절별 강수량 특성 파악&lt;/li&gt;&lt;/ul&gt;" style="text;whiteSpace=wrap;html=1;" vertex="1" parent="1">
          <mxGeometry x="473" y="1133" width="159" height="87" as="geometry" />
        </mxCell>
        <mxCell id="aakahUFlW3FEkS22ihH7-41" value="&lt;h5 style=&quot;border-color: var(--border-color); color: rgb(0, 0, 0); font-family: Helvetica; font-style: normal; font-variant-ligatures: normal; font-variant-caps: normal; letter-spacing: normal; orphans: 2; text-align: left; text-indent: 0px; text-transform: none; widows: 2; word-spacing: 0px; -webkit-text-stroke-width: 0px; background-color: rgb(251, 251, 251); text-decoration-thickness: initial; text-decoration-style: initial; text-decoration-color: initial; line-height: 50%;&quot;&gt;&lt;ul style=&quot;border-color: var(--border-color); font-family: Helvetica; font-size: 12px; font-style: normal; font-variant-ligatures: normal; font-variant-caps: normal; font-weight: 400; letter-spacing: normal; orphans: 2; text-indent: 0px; text-transform: none; widows: 2; word-spacing: 0px; -webkit-text-stroke-width: 0px; text-decoration-thickness: initial; text-decoration-style: initial; text-decoration-color: initial; background-color: rgb(251, 251, 251); line-height: 50%;&quot;&gt;&lt;li style=&quot;border-color: var(--border-color);&quot;&gt;월별 기온 특성 파악&lt;/li&gt;&lt;/ul&gt;&lt;ul style=&quot;border-color: var(--border-color); font-family: Helvetica; font-size: 12px; font-style: normal; font-variant-ligatures: normal; font-variant-caps: normal; font-weight: 400; letter-spacing: normal; orphans: 2; text-indent: 0px; text-transform: none; widows: 2; word-spacing: 0px; -webkit-text-stroke-width: 0px; text-decoration-thickness: initial; text-decoration-style: initial; text-decoration-color: initial; background-color: rgb(251, 251, 251); line-height: 50%;&quot;&gt;&lt;li style=&quot;border-color: var(--border-color);&quot;&gt;월별 강수량 특성 파악&lt;/li&gt;&lt;/ul&gt;&lt;ul style=&quot;border-color: var(--border-color); font-family: Helvetica; font-size: 12px; font-style: normal; font-variant-ligatures: normal; font-variant-caps: normal; font-weight: 400; letter-spacing: normal; orphans: 2; text-indent: 0px; text-transform: none; widows: 2; word-spacing: 0px; -webkit-text-stroke-width: 0px; text-decoration-thickness: initial; text-decoration-style: initial; text-decoration-color: initial; background-color: rgb(251, 251, 251); line-height: 50%;&quot;&gt;&lt;li style=&quot;border-color: var(--border-color);&quot;&gt;기온 + 강수량 기후 그래프&amp;nbsp;&lt;/li&gt;&lt;/ul&gt;&lt;/h5&gt;" style="text;whiteSpace=wrap;html=1;" vertex="1" parent="1">
          <mxGeometry x="740" y="730" width="220" height="130" as="geometry" />
        </mxCell>
      </root>
    </mxGraphModel>
  </diagram>
</mxfile>
